<svg width="26" height="20" viewBox="0 0 26 20" fill="none" xmlns="http://www.w3.org/2000/svg">
<g clip-path="url(#clip0)">
<path d="M0.833192 2.09795L12.4795 8.66641C12.9397 8.92596 13.5281 8.77193 13.7938 8.32238C14.0595 7.87283 13.9018 7.29799 13.4417 7.03844L1.79536 0.469979C1.33516 0.21043 0.746709 0.364458 0.481014 0.814011C0.215319 1.26356 0.372994 1.83841 0.833192 2.09795Z" fill="black"/>
<path d="M0.833192 7.45326L12.4795 14.0217C12.9397 14.2813 13.5281 14.1272 13.7938 13.6777C14.0595 13.2281 13.9018 12.6533 13.4417 12.3937L1.79536 5.82529C1.33516 5.56574 0.746709 5.71977 0.481014 6.16932C0.215318 6.61887 0.372994 7.19371 0.833192 7.45326Z" fill="black"/>
<path d="M0.833332 12.9616L3.25561 14.3277C3.7158 14.5873 4.30426 14.4333 4.56995 13.9837C4.83565 13.5342 4.67797 12.9593 4.21777 12.6998L1.7955 11.3336C1.3353 11.0741 0.746849 11.2281 0.481154 11.6777C0.215459 12.1272 0.373134 12.7021 0.833332 12.9616Z" fill="black"/>
<path d="M7.49112 16.7321L12.4519 19.53C12.9121 19.7896 13.5005 19.6356 13.7662 19.186C14.0319 18.7365 13.8743 18.1616 13.4141 17.9021L8.45329 15.1042C7.99309 14.8446 7.40464 14.9986 7.13895 15.4482C6.87326 15.8978 7.03093 16.4726 7.49112 16.7321Z" fill="black"/>
<path d="M24.2047 0.469962L12.5584 7.03842C12.0982 7.29797 11.9405 7.87281 12.2062 8.32237C12.4719 8.77192 13.0603 8.92595 13.5205 8.6664L25.1669 2.09794C25.6271 1.83839 25.7848 1.26355 25.5191 0.813994C25.2534 0.364441 24.6649 0.210412 24.2047 0.469962Z" fill="black"/>
<path d="M24.2047 5.82527L12.5584 12.3937C12.0982 12.6533 11.9405 13.2281 12.2062 13.6776C12.4719 14.1272 13.0603 14.2812 13.5205 14.0217L25.1669 7.45324C25.6271 7.19369 25.7848 6.61885 25.5191 6.1693C25.2534 5.71975 24.6649 5.56572 24.2047 5.82527Z" fill="black"/>
<path d="M24.2047 11.3336L12.5584 17.902C12.0982 18.1616 11.9405 18.7364 12.2062 19.186C12.4719 19.6355 13.0603 19.7896 13.5205 19.53L25.1669 12.9616C25.6271 12.702 25.7848 12.1272 25.5191 11.6776C25.2534 11.2281 24.6649 11.0741 24.2047 11.3336Z" fill="black"/>
</g>
<defs>
<clipPath id="clip0">
<rect width="26" height="20" fill="white"/>
</clipPath>
</defs>
</svg>
