<svg width="33" height="33" viewBox="0 0 33 33" fill="none" xmlns="http://www.w3.org/2000/svg">
<path d="M11.8927 16.8811C11.9385 17.0799 11.9242 17.2878 11.8518 17.4785C11.7794 17.6692 11.652 17.8342 11.4858 17.9526C11.3196 18.0711 11.122 18.1376 10.918 18.1438C10.7139 18.1501 10.5126 18.0957 10.3395 17.9877L7.71095 16.3459L4.43244 21.5937C4.23815 21.9061 4.13082 22.2646 4.12154 22.6323C4.11226 23 4.20137 23.3636 4.37966 23.6853C4.55795 24.0071 4.81896 24.2755 5.13573 24.4628C5.45251 24.6501 5.81356 24.7495 6.18162 24.7507H9.53451C9.73976 24.7507 9.93662 24.8322 10.0818 24.9772C10.2269 25.1223 10.3084 25.319 10.3084 25.5241V28.1023C10.3084 28.3075 10.2269 28.5042 10.0818 28.6492C9.93662 28.7943 9.73976 28.8758 9.53451 28.8758H6.18909C5.0843 28.8746 3.99992 28.5783 3.0483 28.0174C2.09667 27.4565 1.31243 26.6516 0.776813 25.6859C0.241199 24.7203 -0.0262973 23.629 0.00203864 22.5253C0.0303745 21.4216 0.353512 20.3455 0.937971 19.4086L4.21559 14.1629L1.58913 12.5226C1.41595 12.4145 1.27873 12.2574 1.19483 12.0714C1.11093 11.8853 1.08412 11.6786 1.11779 11.4773C1.15145 11.276 1.24408 11.0892 1.38397 10.9405C1.52385 10.7919 1.7047 10.688 1.90366 10.642L9.01268 9.00019C9.27933 8.93872 9.5595 8.9856 9.79156 9.13053C10.0236 9.27546 10.1886 9.50657 10.2502 9.77303L11.893 16.8775L11.8927 16.8811ZM18.2493 5.09003L20.9122 9.34885L18.2837 10.9906C18.1105 11.0988 17.9733 11.2558 17.8894 11.4419C17.8055 11.6279 17.7787 11.8347 17.8123 12.036C17.846 12.2372 17.9386 12.424 18.0785 12.5727C18.2184 12.7214 18.3992 12.8253 18.5982 12.8713L25.7072 14.513C25.9739 14.5745 26.254 14.5276 26.4861 14.3827C26.7182 14.2378 26.8831 14.0067 26.9447 13.7402L28.5876 6.63571C28.6333 6.43691 28.6191 6.22901 28.5466 6.0383C28.4742 5.84758 28.3468 5.68259 28.1806 5.56418C28.0144 5.44577 27.8168 5.37924 27.6128 5.373C27.4088 5.36677 27.2075 5.4211 27.0343 5.52914L24.4118 7.16437L21.7507 2.90555C21.1936 2.01629 20.4194 1.28312 19.501 0.774881C18.5826 0.26664 17.55 0 16.5001 0C15.4503 0 14.4177 0.26664 13.4993 0.774881C12.5809 1.28312 11.8067 2.01629 11.2496 2.90555L10.0913 4.75958C9.98256 4.93356 9.94744 5.14357 9.99366 5.34342C10.0399 5.54327 10.1636 5.71659 10.3377 5.82526L12.5254 7.19123C12.6994 7.29991 12.9095 7.33505 13.1095 7.28892C13.3095 7.2428 13.4829 7.11918 13.5917 6.94526L14.7501 5.09272C14.9359 4.79673 15.1939 4.55273 15.4998 4.38354C15.8057 4.21436 16.1496 4.12553 16.4993 4.12538C16.8489 4.12523 17.1929 4.21377 17.499 4.38269C17.8051 4.55161 18.0632 4.7954 18.2493 5.09123V5.09003ZM32.062 19.4074L30.2875 16.5674C30.2336 16.4812 30.1633 16.4065 30.0806 16.3474C29.9978 16.2884 29.9042 16.2463 29.8052 16.2234C29.7061 16.2005 29.6035 16.1974 29.5033 16.2142C29.403 16.2309 29.307 16.2673 29.2208 16.3211L27.037 17.685C26.863 17.7937 26.7393 17.9671 26.6931 18.1669C26.647 18.3667 26.6822 18.5767 26.7909 18.7507L28.5688 21.594C28.7631 21.9064 28.8705 22.2651 28.8797 22.6329C28.8889 23.0007 28.7997 23.3643 28.6213 23.6861C28.4429 24.0079 28.1817 24.2763 27.8647 24.4634C27.5477 24.6506 27.1865 24.7498 26.8184 24.7507H20.6279V21.6581C20.6277 21.4542 20.567 21.2548 20.4536 21.0853C20.3401 20.9157 20.1789 20.7836 19.9903 20.7056C19.8017 20.6275 19.5942 20.6071 19.3941 20.6469C19.1939 20.6866 19.0099 20.7847 18.8655 20.9289L13.7067 26.0841C13.6109 26.1799 13.5348 26.2936 13.4829 26.4187C13.4311 26.5438 13.4043 26.6779 13.4043 26.8134C13.4043 26.9488 13.4311 27.083 13.4829 27.2081C13.5348 27.3332 13.6109 27.4469 13.7067 27.5426L18.867 32.6982C19.0114 32.8423 19.1954 32.9405 19.3955 32.9802C19.5957 33.02 19.8032 32.9995 19.9918 32.9215C20.1804 32.8435 20.3416 32.7113 20.4551 32.5418C20.5685 32.3722 20.6292 32.1729 20.6294 31.9689V28.8758H26.8124C27.9171 28.8744 29.0013 28.5778 29.9527 28.0168C30.9041 27.4559 31.6881 26.6509 32.2236 25.6853C32.759 24.7197 33.0264 23.6285 32.998 22.5249C32.9696 21.4214 32.6464 20.3454 32.062 19.4086V19.4074Z" fill="black"/>
</svg>
