<svg width="18" height="24" viewBox="0 0 18 24" fill="none" xmlns="http://www.w3.org/2000/svg">
<path d="M8.17518 0.0951843V0.105458C8.17435 0.102083 8.17435 0.0985595 8.17518 0.0951843Z" fill="black"/>
<path d="M8.17523 0.0951685C8.14538 0.0673416 8.11989 0.0352642 8.09961 0L8.17523 0.0951685Z" fill="black"/>
<path d="M9.32459 1.3867C8.17465 1.38751 7.05077 1.72543 6.09504 2.35773C5.13932 2.99004 4.39466 3.88833 3.95523 4.93905C3.51579 5.98976 3.40131 7.14572 3.62625 8.26076C3.8512 9.37581 4.40546 10.3999 5.21898 11.2035C6.03249 12.0071 7.06873 12.5541 8.19666 12.7755C9.3246 12.9969 10.4936 12.8826 11.5558 12.4471C12.6181 12.0116 13.5259 11.2745 14.1645 10.3289C14.8031 9.38332 15.1438 8.27176 15.1435 7.13475C15.1433 6.3795 14.9926 5.63169 14.7001 4.93403C14.4075 4.23637 13.9788 3.60253 13.4384 3.06874C12.8981 2.53495 12.2566 2.11166 11.5508 1.82305C10.8449 1.53444 10.0884 1.38617 9.32459 1.3867ZM9.32459 11.9801C8.35532 11.9803 7.40773 11.6964 6.60168 11.1642C5.79563 10.6319 5.16731 9.87526 4.7962 8.98992C4.42509 8.10458 4.32785 7.1303 4.51678 6.19031C4.70571 5.25032 5.17231 4.38684 5.8576 3.70907C6.54288 3.0313 7.41605 2.56969 8.36668 2.38263C9.31731 2.19556 10.3027 2.29143 11.1982 2.65812C12.0937 3.02482 12.8591 3.64585 13.3977 4.44269C13.9362 5.23953 14.2236 6.17638 14.2236 7.13475C14.2236 8.41957 13.7075 9.6518 12.7888 10.5604C11.8701 11.4691 10.624 11.9797 9.32459 11.9801Z" fill="black" stroke="black" stroke-width="0.3" stroke-miterlimit="10"/>
<path d="M15.6056 16.6351C15.5496 16.7259 15.5145 16.8278 15.5031 16.9336C15.4917 17.0394 15.5042 17.1464 15.5396 17.2469C15.537 17.2543 15.537 17.2625 15.5396 17.27C15.5781 17.3325 15.6111 17.3923 15.6455 17.4576C16.1245 18.3173 16.4274 19.262 16.5369 20.2375C16.6464 21.2131 16.5603 22.2005 16.2835 23.1431H17.7506C18.2699 21.01 17.9721 18.7624 16.9146 16.8336C16.878 16.6984 16.8021 16.5768 16.6962 16.4839C16.5904 16.391 16.4593 16.3308 16.3192 16.3109C16.1792 16.2909 16.0362 16.312 15.9082 16.3715C15.7801 16.4311 15.6725 16.5265 15.5988 16.6459L15.6056 16.6351Z" fill="black"/>
<path d="M0.248571 23.1417H1.7088C1.34286 21.8848 1.31565 20.5552 1.62985 19.2846C1.94404 18.0141 2.58874 16.8469 3.49998 15.8988C4.41122 14.9507 5.55734 14.2546 6.82463 13.8796C8.09192 13.5046 9.43635 13.4637 10.7245 13.7611C10.9032 13.8332 11.1036 13.8321 11.2815 13.7582C11.4594 13.6843 11.6003 13.5435 11.6733 13.3668C11.7462 13.1901 11.7452 12.992 11.6704 12.8161C11.5956 12.6402 11.4532 12.5008 11.2745 12.4287C11.1776 12.387 11.0722 12.3679 10.9665 12.373C8.95275 11.939 6.84946 12.1976 5.00453 13.1061C3.1596 14.0146 1.68357 15.5186 0.820563 17.3692C-0.0205694 19.1752 -0.222063 21.2087 0.248571 23.1417Z" fill="black"/>
<path d="M14.2238 15.4713C14.7136 15.4713 15.1106 15.0787 15.1106 14.5945C15.1106 14.1102 14.7136 13.7176 14.2238 13.7176C13.734 13.7176 13.3369 14.1102 13.3369 14.5945C13.3369 15.0787 13.734 15.4713 14.2238 15.4713Z" fill="black"/>
</svg>
