<svg width="24" height="24" viewBox="0 0 24 24" fill="none" xmlns="http://www.w3.org/2000/svg">
<path d="M13.129 3.89852C13.129 3.53142 12.8314 3.23383 12.4643 3.23383C12.0972 3.23383 11.7996 3.53142 11.7996 3.89852V19.4539C11.7996 19.821 12.0972 20.1186 12.4643 20.1186C12.8314 20.1186 13.129 19.821 13.129 19.4539V3.89852Z" fill="black"/>
<path d="M11.1681 0.92308V0.936176C11.167 0.931882 11.167 0.927374 11.1681 0.92308V0.92308Z" fill="black"/>
<path d="M11.1678 0.923063C11.1366 0.893794 11.1099 0.860067 11.0886 0.822983L11.1678 0.923063Z" fill="black"/>
<path d="M23.395 7.73444C23.4571 7.85628 23.4908 7.99058 23.4936 8.12729C24.2642 10.6375 24.1527 13.3359 23.1776 15.774C22.2024 18.2121 20.4224 20.2431 18.1332 21.5295C15.8441 22.8159 13.1836 23.2803 10.594 22.8455C8.0044 22.4107 5.64154 21.1028 3.89808 19.1393C2.15462 17.1757 1.13554 14.6747 1.01019 12.0518C0.884837 9.42896 1.66076 6.84217 3.20901 4.7213C4.75727 2.60043 6.98464 1.07321 9.52098 0.393403C12.0573 -0.286401 14.7499 -0.077847 17.1513 0.98441C17.2734 1.00662 17.3898 1.05318 17.4935 1.12131C17.5972 1.18944 17.6861 1.27774 17.755 1.38096C17.8238 1.48419 17.8712 1.60021 17.8943 1.72213C17.9174 1.84405 17.9157 1.96937 17.8893 2.09061C17.8629 2.21186 17.8124 2.32656 17.7408 2.42787C17.6691 2.52919 17.5778 2.61505 17.4723 2.68034C17.3668 2.74563 17.2492 2.78901 17.1266 2.8079C17.004 2.82679 16.8788 2.8208 16.7585 2.79029H16.7286C16.6435 2.75146 16.5613 2.70964 16.4777 2.67229C14.453 1.76006 12.1766 1.57048 10.029 2.13523C7.88135 2.69999 5.99267 3.98486 4.67868 5.77504C3.36469 7.56521 2.70504 9.75219 2.81001 11.9704C2.91498 14.1885 3.77821 16.3034 5.25538 17.9615C6.73255 19.6196 8.73413 20.7204 10.9255 21.0798C13.1169 21.4392 15.3652 21.0355 17.2947 19.9362C19.2241 18.8368 20.7177 17.1085 21.5257 15.0401C22.3338 12.9717 22.4073 10.6885 21.734 8.57241C21.63 8.35291 21.6161 8.10143 21.6953 7.87181C21.7744 7.64219 21.9404 7.4527 22.1575 7.34392C22.3747 7.23514 22.6258 7.21573 22.8571 7.28984C23.0884 7.36395 23.2815 7.52569 23.395 7.74042V7.73444Z" fill="black"/>
<path d="M20.7511 5.74771C21.3764 5.74771 21.8833 5.2408 21.8833 4.61549C21.8833 3.99018 21.3764 3.48326 20.7511 3.48326C20.1258 3.48326 19.6189 3.99018 19.6189 4.61549C19.6189 5.2408 20.1258 5.74771 20.7511 5.74771Z" fill="black"/>
<path d="M12.2461 17.5166C13.0973 17.5832 13.9467 17.3674 14.6629 16.9027C14.919 16.7044 15.124 16.4478 15.2606 16.1541C15.3973 15.8605 15.4618 15.5384 15.4486 15.2148C15.4579 14.8498 15.3697 14.4888 15.1931 14.1692C15.0096 13.8666 14.7655 13.6052 14.4762 13.4014C14.141 13.1655 13.7751 12.9766 13.3888 12.8398C12.9705 12.6904 12.5224 12.5321 12.0444 12.3783C11.5603 12.2351 11.0863 12.06 10.6254 11.854C10.213 11.672 9.82946 11.4304 9.48721 11.137C9.16908 10.8637 8.90815 10.5302 8.71945 10.1556C8.52194 9.73143 8.42581 9.26711 8.43863 8.79936C8.42941 8.33245 8.53616 7.87054 8.74932 7.45503C8.95477 7.07213 9.24872 6.74387 9.60671 6.49757C9.99797 6.22996 10.4364 6.03888 10.8988 5.93444C11.4166 5.81236 11.9471 5.75219 12.4791 5.75519C13.1587 5.75043 13.8364 5.82869 14.4971 5.98821C15.0581 6.12397 15.6075 6.30377 16.1402 6.52594L15.8325 7.47295C15.3392 7.25203 14.8254 7.08041 14.2984 6.96061C13.7025 6.826 13.093 6.76034 12.4821 6.76493C11.7345 6.72471 10.9904 6.89277 10.3326 7.25039C10.0856 7.40244 9.88394 7.61814 9.74886 7.87489C9.61378 8.13164 9.55024 8.41999 9.56488 8.70973C9.54762 9.04402 9.61478 9.37728 9.76018 9.67878C9.90558 9.98028 10.1245 10.2403 10.3969 10.435C11.021 10.8692 11.719 11.1861 12.4567 11.37C13.5664 11.6472 14.6095 12.1434 15.5248 12.8294C15.8575 13.136 16.1227 13.5087 16.3033 13.9236C16.4839 14.3385 16.5759 14.7866 16.5735 15.2391C16.5711 15.6916 16.4744 16.1386 16.2894 16.5516C16.1045 16.9646 15.8354 17.3345 15.4994 17.6376C14.5492 18.2946 13.4024 18.6056 12.2506 18.5189C10.9491 18.5116 9.6623 18.2445 8.46552 17.7332L8.77173 16.8131C9.27754 17.0314 9.80396 17.1986 10.3431 17.312C10.9677 17.4515 11.6061 17.5201 12.2461 17.5166V17.5166Z" fill="black"/>
</svg>
